<svg width="288" height="288" viewBox="0 0 288 288" fill="none" xmlns="http://www.w3.org/2000/svg">
<g clip-path="url(#clip0_41_330)">
<rect width="288" height="288" rx="10" fill="#2C7DFA"/>
<circle cx="266.5" cy="339.5" r="135" fill="#3685FF"/>
<circle cx="32.5" cy="-0.5" r="164" fill="#3685FF"/>
<path d="M119.173 224H108.138V218.482H119.173V224ZM130.207 224H124.689V218.482H130.207V224ZM146.759 224H135.725V218.482H146.759V224ZM174.345 224H157.793V218.482H168.827V207.448H174.345V224ZM201.931 179.862H207.448V185.379H212.966V190.896H201.931V196.414H207.448V201.931H218.482V212.966H212.966V224H179.862V201.931H168.827V190.896H163.311V185.379H157.793V174.345H163.311V179.862H168.827V185.379H174.345V168.827H201.931V179.862ZM135.725 218.482H130.207V212.966H135.725V218.482ZM152.275 218.482H146.759V207.448H152.275V218.482ZM185.379 218.482H190.896V212.966H185.379V218.482ZM196.414 218.482H201.931V212.966H196.414V218.482ZM224 218.482H218.482V212.966H224V218.482ZM130.207 207.448H124.689V212.966H113.655V201.931H130.207V207.448ZM168.827 207.448H163.311V212.966H152.276V207.448H157.793V201.931H168.827V207.448ZM152.275 196.414H146.759V207.448H135.725V201.931H130.207V196.414H141.241V190.896H152.275V196.414ZM185.379 207.448H190.896V201.931H185.379V207.448ZM196.414 207.448H201.931V201.931H196.414V207.448ZM157.793 201.931H152.276V190.896H157.793V201.931ZM130.207 196.414H119.173V190.896H130.207V196.414ZM179.862 196.414H196.414V179.862H179.862V196.414ZM224 196.414H218.482V190.896H224V196.414ZM135.725 190.896H130.207V185.379H135.725V190.896ZM190.896 190.896H185.379V185.379H190.896V190.896ZM119.173 168.827H124.689V174.345H119.173V179.862H124.689V185.379H108.138V179.862H113.655V168.827H108.138V163.311H102.621V157.793H119.173V168.827ZM152.275 179.862H146.759V185.379H141.241V174.345H152.275V179.862ZM69.5176 163.311H75.0342V168.827H69.5176V179.862H64V152.275H69.5176V163.311ZM91.5859 179.862H86.0693V174.345H91.5859V179.862ZM108.138 179.862H97.1035V174.345H108.138V179.862ZM130.207 179.862H124.689V174.345H130.207V179.862ZM224 179.862H207.448V174.345H224V179.862ZM102.621 168.827H97.1035V174.345H91.5859V168.827H86.0693V174.345H75.0342V168.827H80.5518V163.311H102.621V168.827ZM141.241 174.345H130.207V168.827H141.241V174.345ZM168.827 174.345H163.311V168.827H168.827V174.345ZM130.207 168.827H124.689V152.275H130.207V168.827ZM152.275 168.827H146.759V163.311H152.275V168.827ZM168.827 146.759H174.345V157.793H179.862V163.311H174.345V168.827H168.827V163.311H157.793V157.793H152.276V152.275H163.311V146.759H157.793V141.241H168.827V146.759ZM207.448 168.827H201.931V163.311H207.448V168.827ZM196.414 146.759H201.931V141.241H212.966V157.793H224V168.827H218.482V163.311H207.448V157.793H201.931V163.311H185.379V157.793H190.896V141.241H196.414V146.759ZM146.759 163.311H135.725V157.793H146.759V163.311ZM102.621 157.793H86.0693V152.275H102.621V157.793ZM201.931 152.275H196.414V157.793H201.931V152.275H207.448V146.759H201.931V152.275ZM119.173 124.689H124.689V141.241H119.173V146.759H124.689V152.275H108.138V141.241H113.655V135.725H119.173V130.207H113.655V135.725H108.138V130.207H102.621V135.725H91.5859V124.689H97.1035V130.207H102.621V124.689H97.1035V119.173H119.173V124.689ZM152.275 152.275H146.759V146.759H152.275V152.275ZM224 152.275H218.482V146.759H224V152.275ZM75.0342 146.759H64V141.241H75.0342V146.759ZM91.5859 146.759H86.0693V135.725H91.5859V146.759ZM102.621 146.759H97.1035V141.241H102.621V146.759ZM179.862 135.725H185.379V124.689H196.414V135.725H190.896V141.241H185.379V146.759H179.862V141.241H168.827V130.207H174.345V124.689H179.862V135.725ZM80.5518 141.241H75.0342V135.725H80.5518V141.241ZM108.138 141.241H102.621V135.725H108.138V141.241ZM157.793 141.241H152.276V130.207H157.793V141.241ZM201.931 141.241H196.414V135.725H201.931V141.241ZM224 141.241H212.966V135.725H218.482V130.207H224V141.241ZM75.0342 135.725H69.5176V130.207H75.0342V135.725ZM141.241 119.173H152.275V124.689H141.241V135.725H135.725V130.207H130.207V119.173H135.725V113.655H141.241V119.173ZM152.275 135.725H146.759V130.207H152.275V135.725ZM69.5176 130.207H64V124.689H69.5176V130.207ZM80.5518 119.173H91.5859V124.689H80.5518V130.207H75.0342V124.689H69.5176V119.173H75.0342V113.655H80.5518V119.173ZM207.448 130.207H201.931V124.689H207.448V130.207ZM157.793 108.138H163.311V113.655H168.827V108.138H174.345V119.173H163.311V124.689H152.276V97.1035H157.793V108.138ZM69.5176 119.173H64V108.138H69.5176V119.173ZM97.1035 119.173H91.5859V113.655H97.1035V119.173ZM201.931 119.173H190.896V113.655H201.931V119.173ZM218.482 119.173H207.448V113.655H201.931V108.138H218.482V119.173ZM102.621 113.655H97.1035V108.138H102.621V113.655ZM113.655 113.655H108.138V97.1035H113.655V113.655ZM124.689 113.655H119.173V108.138H124.689V113.655ZM190.896 113.655H179.862V108.138H190.896V113.655ZM130.207 108.138H124.689V102.621H130.207V108.138ZM146.759 102.621H152.275V108.138H141.241V97.1035H146.759V102.621ZM168.827 108.138H163.311V97.1035H168.827V108.138ZM179.862 108.138H174.345V91.5859H168.827V86.0693H174.345V69.5176H179.862V108.138ZM124.689 102.621H119.173V97.1035H124.689V102.621ZM135.725 102.621H130.207V91.5859H135.725V102.621ZM119.173 75.0342H124.689V69.5176H146.759V75.0342H141.241V80.5518H130.207V75.0342H124.689V80.5518H119.173V97.1035H113.655V86.0693H108.138V69.5176H119.173V75.0342ZM152.275 97.1035H146.759V86.0693H152.275V97.1035ZM163.311 86.0693H157.793V91.5859H152.276V80.5518H163.311V86.0693ZM130.207 86.0693H124.689V80.5518H130.207V86.0693ZM152.275 80.5518H146.759V75.0342H152.275V80.5518ZM168.827 80.5518H163.311V75.0342H168.827V80.5518ZM157.793 69.5176H163.311V75.0342H152.276V64H157.793V69.5176ZM124.689 69.5176H119.173V64H124.689V69.5176ZM152.275 69.5176H146.759V64H152.275V69.5176ZM168.827 69.5176H163.311V64H168.827V69.5176Z" fill="white"/>
<path fill-rule="evenodd" clip-rule="evenodd" d="M69.7931 64H96.8276H102.621V69.7931V96.8276V102.621H96.8276H69.7931H64V96.8276V69.7931V64H69.7931ZM69.7931 96.8276H96.8276V69.7931H69.7931V96.8276Z" fill="white"/>
<path fill-rule="evenodd" clip-rule="evenodd" d="M191.172 64H218.207H224V69.7931V96.8276V102.621H218.207H191.172H185.379V96.8276V69.7931V64H191.172ZM191.172 96.8276H218.207V69.7931H191.172V96.8276Z" fill="white"/>
<path fill-rule="evenodd" clip-rule="evenodd" d="M69.7931 185.379H96.8276H102.621V191.172V218.207V224H96.8276H69.7931H64V218.207V191.172V185.379H69.7931ZM69.7931 218.207H96.8276V191.172H69.7931V218.207Z" fill="white"/>
<rect x="75.0345" y="75.0345" width="16.5517" height="16.5517" fill="white"/>
<rect x="196.414" y="75.0345" width="16.5517" height="16.5517" fill="white"/>
<rect x="75.0345" y="196.414" width="16.5517" height="16.5517" fill="white"/>
</g>
<defs>
<clipPath id="clip0_41_330">
<rect width="288" height="288" rx="10" fill="white"/>
</clipPath>
</defs>
</svg>
